# Blender v2.70 (sub 5) OBJ File: ''
# www.blender.org
v 4.000000 0.155400 3.000000
v -4.000000 0.155400 3.000000
v -4.000000 0.155400 -3.000000
v -3.000000 1.155400 2.250000
v -4.000000 1.155400 2.250000
v -4.000000 1.155400 3.000000
v 4.000000 1.155400 0.000000
v 4.000000 1.155400 0.750000
v -1.000000 1.155400 3.000000
v 0.000000 1.155400 3.000000
v -4.000000 1.155400 0.750000
v 4.000000 0.155400 -3.000000
v 0.000000 1.155401 -3.000000
v 1.000000 1.155400 2.250000
v 0.000000 1.155400 2.250000
v -4.000000 1.155400 -0.750000
v -4.000000 1.155400 0.000000
v -3.000000 1.155400 0.000000
v -2.000000 1.155400 2.250000
v -2.000000 1.155400 3.000000
v -4.000000 1.155400 1.500000
v -3.000000 1.155400 1.500000
v 2.000000 1.155400 2.250000
v 2.000000 1.155400 3.000000
v 3.000000 1.155400 3.000000
v -4.000000 1.155400 -2.250000
v -4.000000 1.155400 -1.500000
v -3.000000 1.155400 -1.500000
v -3.000000 1.155400 3.000000
v 1.000000 1.155400 3.000000
v -3.000000 0.444200 0.000000
v -3.000000 0.444200 -0.750000
v -3.000000 0.444200 2.250000
v -3.000000 0.444200 1.500000
v -3.000000 1.155400 0.750000
v -3.000000 0.444200 0.750000
v 2.000000 1.155400 -2.250000
v 2.000000 0.444200 -2.250000
v 3.000000 0.444200 -2.250000
v -1.000000 1.155400 -2.250000
v -1.000000 0.444200 -2.250000
v 0.000000 0.444200 -2.250000
v -3.000000 1.155400 -0.750000
v -1.000000 1.155400 2.250000
v -3.000000 0.444200 -1.500000
v -3.000000 0.444200 -2.250000
v 3.000000 1.155400 -0.750000
v 3.000000 0.444200 -0.750000
v 3.000000 0.444200 0.000000
v 3.000000 1.155400 1.500000
v 3.000000 0.444200 1.500000
v 3.000000 0.444200 2.250000
v 0.000000 0.444200 2.250000
v -1.000000 0.444200 2.250000
v 1.000000 0.444200 2.250000
v 0.000000 1.155400 -2.250000
v 1.000000 0.444200 -2.250000
v -3.000000 1.155400 -2.250000
v -2.000000 0.444200 -2.250000
v 4.000000 1.155400 2.250000
v 3.000000 1.155400 2.250000
v 2.000000 0.444200 2.250000
v 3.000000 1.155400 0.750000
v 3.000000 1.155400 0.000000
v 3.000000 0.444200 0.750000
v 3.000000 1.155400 -2.250000
v 3.000000 0.444200 -1.500000
v 3.000000 1.155400 -1.500000
v 4.000000 1.155400 -0.750000
v -2.000000 0.444200 2.250000
v 4.000000 1.155400 -2.250000
v 4.000000 1.155401 -3.000000
v 3.000000 1.155401 -3.000000
v 2.000000 1.155401 -3.000000
v -2.000000 1.155400 -2.250000
v 1.000000 1.155401 -3.000000
v 1.000000 1.155400 -2.250000
v -1.000000 1.155401 -3.000000
v -2.000000 1.155401 -3.000000
v -3.000000 1.155401 -3.000000
v -4.000000 1.155401 -3.000000
v 0.000000 0.444200 -0.750000
v 0.000000 0.444200 0.000000
v 1.000000 0.444200 0.000000
v -1.000000 0.444200 0.750000
v -2.000000 0.444200 0.750000
v -2.000000 0.444200 1.500000
v 2.000000 0.444200 0.750000
v 2.000000 0.444200 1.500000
v 1.000000 0.444200 0.750000
v 0.000000 0.444200 0.750000
v 0.000000 0.444200 1.500000
v 2.000000 0.444200 -0.750000
v 2.000000 0.444200 0.000000
v 2.000000 0.444200 -1.500000
v 0.000000 0.444200 -1.500000
v -2.000000 0.444200 -0.750000
v -2.000000 0.444200 0.000000
v -1.000000 0.444200 0.000000
v -2.000000 1.182400 1.500000
v -1.000000 1.182400 2.250000
v -3.000000 1.166200 -1.500000
v -3.000000 1.166200 -2.250000
v 1.000000 0.444200 1.500000
v 1.000000 0.444200 -0.750000
v 1.000000 0.444200 -1.500000
v -1.000000 1.182400 -2.250000
v -2.000000 1.182400 -1.500000
v -1.000000 0.444200 1.500000
v -2.000000 0.444200 -1.500000
v -3.000000 1.182400 -0.750000
v -3.000000 1.150900 0.750000
v -2.000000 1.150900 1.500000
v -1.000000 0.444200 -0.750000
v -1.000000 0.444200 -1.500000
v -3.000000 1.166200 1.500000
v -3.000000 1.166200 2.250000
v -2.000000 1.166200 2.250000
v -2.000000 1.166200 -1.500000
v -2.000000 1.166200 -2.250000
v -2.000000 1.166200 1.500000
v -3.000000 1.150900 1.500000
v -2.000000 1.182400 -2.250000
v -3.000000 1.182400 -1.500000
v -2.000000 1.182400 2.250000
v 4.000000 1.155400 -1.500000
v 4.000000 1.155400 1.500000
v 4.000000 1.155400 3.000000
vn 0.000000 -1.000000 -0.000000
vn 0.000000 1.000000 0.000000
vn 1.000000 0.000000 0.000000
vn 0.000000 -0.000000 1.000000
vn -1.000000 0.000000 0.000000
vn 0.000000 0.000000 -1.000000
vn 0.600000 0.000000 -0.800000
vn 0.600000 -0.000000 0.800000
s off
f 1//1 2//1 3//1
f 4//2 5//2 6//2
f 8//3 1//3 7//3
f 9//4 2//4 10//4
f 3//5 2//5 11//5
f 12//6 3//6 13//6
f 14//2 15//2 10//2
f 16//2 17//2 18//2
f 19//2 20//2 9//2
f 11//2 21//2 22//2
f 23//2 24//2 25//2
f 26//2 27//2 28//2
f 4//2 29//2 20//2
f 22//2 21//2 5//2
f 14//2 30//2 24//2
f 18//3 31//3 32//3
f 4//3 33//3 34//3
f 35//3 36//3 31//3
f 37//4 38//4 39//4
f 40//4 41//4 42//4
f 27//2 16//2 43//2
f 15//2 44//2 9//2
f 28//3 45//3 46//3
f 47//5 48//5 49//5
f 50//5 51//5 52//5
f 15//6 53//6 54//6
f 14//6 55//6 53//6
f 56//4 42//4 57//4
f 58//4 46//4 59//4
f 17//2 11//2 35//2
f 60//2 61//2 25//2
f 50//2 61//2 60//2
f 61//6 52//6 62//6
f 8//2 63//2 50//2
f 7//2 64//2 63//2
f 64//5 49//5 65//5
f 66//5 39//5 67//5
f 22//3 34//3 36//3
f 43//3 32//3 45//3
f 47//2 64//2 7//2
f 68//2 47//2 69//2
f 19//6 70//6 33//6
f 71//2 66//2 68//2
f 72//2 73//2 66//2
f 73//2 74//2 37//2
f 75//4 59//4 41//4
f 74//2 76//2 77//2
f 13//2 56//2 77//2
f 23//6 62//6 55//6
f 77//4 57//4 38//4
f 68//5 67//5 48//5
f 44//6 54//6 70//6
f 78//2 40//2 56//2
f 79//2 75//2 40//2
f 63//5 65//5 51//5
f 80//2 58//2 75//2
f 81//2 26//2 58//2
f 82//2 83//2 84//2
f 85//2 86//2 87//2
f 65//2 88//2 89//2
f 90//2 91//2 92//2
f 48//2 93//2 94//2
f 39//2 38//2 95//2
f 57//2 42//2 96//2
f 97//2 98//2 99//2
f 87//7 100//7 101//7
f 45//5 102//5 103//5
f 104//2 55//2 62//2
f 104//2 92//2 53//2
f 105//2 84//2 94//2
f 106//2 105//2 93//2
f 96//2 82//2 105//2
f 32//2 31//2 98//2
f 41//8 107//8 108//8
f 109//2 54//2 53//2
f 110//8 108//8 111//8
f 85//2 109//2 92//2
f 83//2 99//2 85//2
f 98//2 86//2 85//2
f 36//7 112//7 113//7
f 31//2 36//2 86//2
f 89//2 62//2 52//2
f 49//2 94//2 88//2
f 88//2 90//2 104//2
f 94//2 84//2 90//2
f 84//2 83//2 91//2
f 67//2 95//2 93//2
f 38//2 57//2 106//2
f 114//2 99//2 83//2
f 115//2 114//2 82//2
f 110//2 97//2 114//2
f 41//2 115//2 96//2
f 59//6 46//6 103//6
f 116//2 117//2 118//2
f 103//2 102//2 119//2
f 70//4 118//4 117//4
f 33//5 117//5 116//5
f 59//3 120//3 119//3
f 87//3 121//3 118//3
f 110//4 119//4 102//4
f 34//6 116//6 121//6
f 86//2 36//2 87//2
f 109//2 87//2 54//2
f 115//2 41//2 110//2
f 97//2 110//2 32//2
f 112//2 122//2 113//2
f 34//5 122//5 112//5
f 87//4 113//4 122//4
f 107//2 123//2 108//2
f 108//2 124//2 111//2
f 100//2 125//2 101//2
f 59//6 123//6 107//6
f 54//4 101//4 125//4
f 32//5 111//5 124//5
f 110//5 108//5 123//5
f 70//5 125//5 100//5
f 45//6 124//6 108//6
f 12//1 1//1 3//1
f 29//2 4//2 6//2
f 72//3 71//3 12//3
f 69//3 12//3 126//3
f 29//4 6//4 2//4
f 60//3 1//3 127//3
f 128//3 1//3 60//3
f 12//3 71//3 126//3
f 25//4 1//4 128//4
f 12//3 69//3 7//3
f 7//3 1//3 12//3
f 1//3 8//3 127//3
f 1//4 25//4 24//4
f 20//4 29//4 2//4
f 11//5 2//5 21//5
f 6//5 5//5 2//5
f 9//4 20//4 2//4
f 10//4 1//4 30//4
f 2//4 1//4 10//4
f 1//4 24//4 30//4
f 11//4 17//4 16//4
f 26//5 3//5 27//5
f 26//5 81//5 3//5
f 81//6 80//6 3//6
f 2//5 5//5 21//5
f 73//6 72//6 12//6
f 3//5 16//5 27//5
f 3//5 11//5 16//5
f 74//6 73//6 12//6
f 3//6 80//6 79//6
f 76//6 74//6 12//6
f 3//6 79//6 78//6
f 13//6 3//6 78//6
f 13//6 76//6 12//6
f 30//2 14//2 10//2
f 43//2 16//2 18//2
f 44//2 19//2 9//2
f 35//2 11//2 22//2
f 61//2 23//2 25//2
f 58//2 26//2 28//2
f 19//2 4//2 20//2
f 4//2 22//2 5//2
f 23//2 14//2 24//2
f 43//3 18//3 32//3
f 22//3 4//3 34//3
f 18//3 35//3 31//3
f 66//4 37//4 39//4
f 56//4 40//4 42//4
f 28//2 27//2 43//2
f 10//2 15//2 9//2
f 58//3 28//3 46//3
f 64//5 47//5 49//5
f 61//5 50//5 52//5
f 44//6 15//6 54//6
f 15//6 14//6 53//6
f 77//4 56//4 57//4
f 75//4 58//4 59//4
f 18//2 17//2 35//2
f 128//2 60//2 25//2
f 127//2 50//2 60//2
f 23//6 61//6 62//6
f 127//2 8//2 50//2
f 8//2 7//2 63//2
f 63//5 64//5 65//5
f 68//5 66//5 67//5
f 35//3 22//3 36//3
f 28//3 43//3 45//3
f 69//2 47//2 7//2
f 126//2 68//2 69//2
f 4//6 19//6 33//6
f 126//2 71//2 68//2
f 71//2 72//2 66//2
f 66//2 73//2 37//2
f 40//4 75//4 41//4
f 37//2 74//2 77//2
f 76//2 13//2 77//2
f 14//6 23//6 55//6
f 37//4 77//4 38//4
f 47//5 68//5 48//5
f 19//6 44//6 70//6
f 13//2 78//2 56//2
f 78//2 79//2 40//2
f 50//5 63//5 51//5
f 79//2 80//2 75//2
f 80//2 81//2 58//2
f 105//2 82//2 84//2
f 109//2 85//2 87//2
f 51//2 65//2 89//2
f 104//2 90//2 92//2
f 49//2 48//2 94//2
f 67//2 39//2 95//2
f 106//2 57//2 96//2
f 114//2 97//2 99//2
f 54//7 87//7 101//7
f 46//5 45//5 103//5
f 89//2 104//2 62//2
f 55//2 104//2 53//2
f 93//2 105//2 94//2
f 95//2 106//2 93//2
f 106//2 96//2 105//2
f 97//2 32//2 98//2
f 110//8 41//8 108//8
f 92//2 109//2 53//2
f 32//8 110//8 111//8
f 91//2 85//2 92//2
f 91//2 83//2 85//2
f 99//2 98//2 85//2
f 87//7 36//7 113//7
f 98//2 31//2 86//2
f 51//2 89//2 52//2
f 65//2 49//2 88//2
f 89//2 88//2 104//2
f 88//2 94//2 90//2
f 90//2 84//2 91//2
f 48//2 67//2 93//2
f 95//2 38//2 106//2
f 82//2 114//2 83//2
f 96//2 115//2 82//2
f 115//2 110//2 114//2
f 42//2 41//2 96//2
f 120//6 59//6 103//6
f 121//2 116//2 118//2
f 120//2 103//2 119//2
f 33//4 70//4 117//4
f 34//5 33//5 116//5
f 110//3 59//3 119//3
f 70//3 87//3 118//3
f 45//4 110//4 102//4
f 87//6 34//6 121//6
f 36//5 34//5 112//5
f 34//4 87//4 122//4
f 41//6 59//6 107//6
f 70//4 54//4 125//4
f 45//5 32//5 124//5
f 59//5 110//5 123//5
f 87//5 70//5 100//5
f 110//6 45//6 108//6
